<?xml version="1.0" encoding="utf-8"?>
<!-- Generator: Adobe Illustrator 19.0.0, SVG Export Plug-In . SVG Version: 6.00 Build 0)  -->
<svg version="1.1" id="Layer_1" xmlns="http://www.w3.org/2000/svg" xmlns:xlink="http://www.w3.org/1999/xlink" x="0px" y="0px"
	 viewBox="-300 249.8 898.5 1002.2" style="enable-background:new -300 249.8 898.5 1002.2;" xml:space="preserve">
<style type="text/css">
	.st0{fill:#191A17;}
</style>
<g>
	<path class="st0" d="M589.6,281.1c-124.3-18.9-280.7-29.3-440.4-29.3c-159.6,0-316,10.4-440.3,29.3l-6,0.9v48.6l4.3,1.8
		c10.7,4.6,21.8,7.4,33.1,8.4c0.1,51.6,8.1,103.2,23.6,153.3c13.5,43.5,32.7,86.1,57.1,126.6c43.3,71.8,92.7,119.3,112.8,134.4
		l0.3,0.2c16.7,11.3,24.4,28.9,23.5,53.8v0.2v0.2c2.7,124.5,4.9,214.6,6.3,268.2c0.2,6.7,1.5,9.9,5.8,14.2
		c4.4,4.3,9.8,10.7,15.6,17.4c20.5,23.8,36.1,40.7,50,40.7h8.4v43.8h-17v46.8l1.7,0.4c0.2,0,0.3,0.1,0.5,0.1c1.5,0.3,3,0.6,4.6,0.9
		c0.7,0.1,1.4,0.3,2.2,0.4c0.9,0.2,1.9,0.3,2.8,0.5c0.3,0,0.5,0.1,0.8,0.1c1,0.2,2.1,0.3,3.1,0.4c0.1,0,0.2,0,0.3,0
		c4.5,0.6,9,1,13.4,1.3c3.4,0.2,6.8,0.3,10.2,0.3c12.7,0,25.5-1.4,38.1-4.1l1.7-0.4v-46.7h-17V1150h120.6v43.8h-17v46.8l1.7,0.4
		c0.1,0,0.3,0.1,0.4,0.1c1.6,0.3,3.1,0.6,4.7,0.9c0.7,0.1,1.4,0.3,2.1,0.4c0.9,0.2,1.9,0.3,2.8,0.5c0.3,0,0.5,0.1,0.8,0.1
		c1,0.2,2.1,0.3,3.1,0.4c0.1,0,0.2,0,0.3,0c4.5,0.6,9,1,13.4,1.3c3.4,0.2,6.8,0.3,10.2,0.3c11.1,0,22.3-1.1,33.4-3.1
		c1.6-0.3,3.2-0.6,4.7-1l1.7-0.4v-46.7h-17V1150h8.4c14,0,30.5-17.4,52.3-41.9c5.5-6.2,10.7-12.1,14.8-16.1
		c4.3-4.3,5.6-7.5,5.8-14.2c0.4-16.3,1.1-34.3,1.8-55.2c2-56.6,4.5-127,4.5-213.2c0-26.1,7.5-43.2,23.5-54.1l0.3-0.2
		c19.9-14.9,68.9-62.3,112-134.4c24.2-40.5,43.2-83,56.5-126.6c15.3-50.1,23.2-101.6,23.3-153.2c11.3-1,22.4-3.8,33.1-8.4l4.3-1.8
		v-48.6L589.6,281.1z M581.4,321.2c-0.1,0-0.2,0.1-0.3,0.1c-122.8-18.1-275.8-28.1-431.9-28.1s-309,10-431.8,28.1
		c-0.1,0-0.2-0.1-0.3-0.1v-26.9C-160.2,276-7.1,266,149.3,266s309.5,10,432.2,28.3v26.9H581.4z M47.8,1150h1.1v43.8h-1.1V1150z
		 M37.3,1198.1v40.3c0,0,0,0-0.1,0c-0.9-0.2-1.9-0.3-2.8-0.5c-0.6-0.1-1.3-0.2-1.9-0.4c-0.6-0.1-1.1-0.2-1.7-0.3v-39.1H37.3z
		 M101.7,1198.1v39.1c-0.4,0.1-0.7,0.2-1.1,0.2c-1.2,0.2-2.3,0.5-3.5,0.7c-0.6,0.1-1.3,0.2-1.9,0.3c-1.2,0.2-2.3,0.4-3.5,0.5
		c-0.6,0.1-1.2,0.2-1.8,0.3c-1.5,0.2-3,0.4-4.5,0.6c-0.9,0.1-1.8,0.2-2.7,0.3c-0.9,0.1-1.9,0.2-2.8,0.3c-1,0.1-2,0.1-3,0.2
		c-0.6,0-1.3,0.1-1.9,0.1c-1.1,0.1-2.3,0.1-3.4,0.1c-0.4,0-0.9,0-1.3,0c-4,0.1-7.9,0-11.9-0.1v-42.5H89L101.7,1198.1L101.7,1198.1z
		 M84.7,1193.8H63.5V1150h21.2V1193.8z M213.8,1150h1.1v43.8h-1.1V1150z M203.3,1198.1v40.3c0,0,0,0-0.1,0c-0.9-0.2-1.9-0.3-2.8-0.5
		c-0.7-0.1-1.3-0.2-2-0.4c-0.5-0.1-1.1-0.2-1.6-0.3v-39.1H203.3z M267.7,1198.1v39.1c-0.4,0.1-0.7,0.2-1.1,0.2
		c-1.2,0.2-2.3,0.4-3.5,0.7c-0.6,0.1-1.3,0.2-1.9,0.3c-1.2,0.2-2.3,0.4-3.5,0.5c-0.6,0.1-1.2,0.2-1.8,0.3c-1.4,0.2-2.9,0.4-4.4,0.5
		c-1,0.1-2,0.2-3,0.3c-0.9,0.1-1.8,0.2-2.7,0.2c-1,0.1-2.1,0.1-3.1,0.2c-0.6,0-1.2,0.1-1.8,0.1c-1.2,0.1-2.3,0.1-3.5,0.1
		c-0.4,0-0.8,0-1.3,0c-4,0.1-8,0-12-0.1V1198h30.7L267.7,1198.1L267.7,1198.1z M250.7,1193.8h-21.2V1150h21.2V1193.8z M305,1098.7
		c-11.5,13-32.9,37.2-41.7,37.2H80.5H35.2c-8.4,0-27.7-22.4-39.2-35.8c-3.7-4.3-7.3-8.5-10.7-12.2c30,4.9,84,7.3,163.9,7.4
		c84.8-0.1,138.3-2.8,166.4-8.5C312.4,1090.3,308.8,1094.4,305,1098.7z M328.3,809.4c0,85.9-2.5,156.2-4.5,212.7
		c-0.7,20.9-1.4,39-1.8,55.4c-0.1,2.5-0.1,2.9-1,3.8c-25.6,6.6-80.4,9.8-171.9,9.9c-85.2-0.1-140.7-2.9-168.9-8.4
		c-0.3-0.3-0.6-0.6-0.8-0.8c-1.5-1.5-1.5-1.5-1.6-4.5c-1.4-53.6-3.6-143.6-6.3-268c0.6-16.1-2.1-29.9-8-41.5
		c54,13.1,122.1,27.2,186.5,27.2c0.1,0,0.1,0,0.2,0c60.9,0,123.1-12.8,186.7-27.8C331.2,778.7,328.3,792.7,328.3,809.4z
		 M550.9,327.1l-7,0.2l0.1,7c0.5,52.5-7.1,104.8-22.7,155.7c-13,42.4-31.6,84-55.2,123.4c-41.9,70.1-89,115.8-108.3,130.2
		c-6.2,4.2-11.5,9.2-15.7,15.1C276.6,774.3,212.5,788,150.2,788c0,0-0.1,0-0.2,0c-35.1,0-88.6-3.3-191.7-28.7
		c-4.4-6-9.8-11.2-16.3-15.7c-19.4-14.6-66.9-60.5-109-130.3c-23.8-39.5-42.5-81-55.7-123.4c-15.6-50.8-23.3-103.2-22.8-155.6l0.1-7
		l-7-0.2c-4.2-0.1-8.4-0.5-12.6-1.2c119.6-16.6,265.5-25.7,414.3-25.7s294.7,9.1,414.3,25.7C559.3,326.6,555.1,327,550.9,327.1z"/>
</g>
</svg>
